<svg id="Layer_1" data-name="Layer 1" xmlns="http://www.w3.org/2000/svg" viewBox="0 0 565.26 317.69"><defs><style>.cls-1{fill:#a9abae;}.cls-2{fill:#a6a7ac;}.cls-3{fill:#aaabae;}.cls-4{fill:#d55983;}.cls-5{fill:#df4f80;}.cls-6{fill:#d65782;}</style></defs><title>Untitled-3</title><path class="cls-1" d="M177.5,101.5c-3.18,1-16.28,5.43-24,19-10.43,18.34-1.86,37.19-1,39a59.35,59.35,0,0,1,10-29,57.46,57.46,0,0,1,11-12c8.36,15,18.28,21.24,24,24,9,4.35,19.25,5.64,30,7,7.41.94,12.58,1,22,3a142.49,142.49,0,0,1,15,4,33,33,0,0,0-11-10c-4.4-2.41-7.83-2.87-14-4-13.55-2.48-20.32-3.72-26-6-8.64-3.47-14.1-8.49-19-13A83.05,83.05,0,0,1,177.5,101.5Z" transform="translate(-37.06 -21.5)"/><path class="cls-2" d="M210.5,79.5a26.62,26.62,0,0,0-15,2,28.21,28.21,0,0,0-10,8,33.53,33.53,0,0,0-5,8,26.18,26.18,0,0,1,13-27c11.17-6.56,23.05-2.67,25-2a81.93,81.93,0,0,0,28,35,80.77,80.77,0,0,0,30,13c6.73.51,17.13,1.25,30,2,13.13.76,17.15.85,24,2,14.67,2.46,23.6,4,30,11,7.55,8.31,7.55,19.92,7,26-6-12.52-14.21-17.9-18-20-7-3.88-13.78-4.68-25-6-7.8-.92-11.28-.66-20-1-9.29-.36-21.23-.83-32-3-8.37-1.69-25.59-5.37-41-19a76.66,76.66,0,0,1-19-26Z" transform="translate(-37.06 -21.5)"/><path class="cls-3" d="M261.5,21.5a29.16,29.16,0,0,1-5,18,29.68,29.68,0,0,1-19,12,17,17,0,0,0-13,12,56.54,56.54,0,0,1,15-5c4.93-.89,7-.55,12-2a34.94,34.94,0,0,0,11-5,31.43,31.43,0,0,0,10-12,56.09,56.09,0,0,0,11,25c8.3,10.49,19,15.68,26,19,14.8,7,20.59,5,28,12,6.52,6.15,9,14.22,10,20a32.6,32.6,0,0,0-2-21c-3.6-7.62-9.46-11.64-13-14-6.43-4.29-9-3.52-17-7-6-2.61-18.27-7.94-25-19-5.73-9.42-2.24-14.46-8-22C276.87,25.12,267.88,22.54,261.5,21.5Z" transform="translate(-37.06 -21.5)"/><path class="cls-4" d="M137,164l231,1a359.54,359.54,0,0,0-26,70c-2.49,9.71-4.46,19.07-6,28a203.45,203.45,0,0,1,12-82Z" transform="translate(-37.06 -21.5)"/><path class="cls-5" d="M155,176l17,1a308,308,0,0,1,17,46,308.38,308.38,0,0,1,11,66,492.91,492.91,0,0,0-24-70C169.25,203.27,162.12,188.94,155,176Z" transform="translate(-37.06 -21.5)"/><path class="cls-6" d="M195,179h11a293.05,293.05,0,0,1,7,41,292,292,0,0,1,1,44q-4.65-25.62-11-53Q199.16,194.58,195,179Z" transform="translate(-37.06 -21.5)"/><path class="cls-6" d="M301,186H288a250.37,250.37,0,0,0,2,89,277.78,277.78,0,0,1,11-89Z" transform="translate(-37.06 -21.5)"/><path class="cls-4" d="M313,187l12-1a427.78,427.78,0,0,0-7,46c-1.46,15.09-2,29.16-2,42a212.37,212.37,0,0,1-6-59A208.68,208.68,0,0,1,313,187Z" transform="translate(-37.06 -21.5)"/><path class="cls-5" d="M133,183c-44.18-5.08-81.51,11.56-92,38-3.43,8.66-7.24,26.56,1,43,1.66,3.31,6.59,12.1,24,23,22.9,14.33,45.11,18.35,56,20,46,6.95,89.85,1.61,116-3,31.12-5.76,55.94-12.16,73-17,18.7-5.3,23.74-7.5,50-15,30-8.56,44.93-12.84,62-16,37.63-7,64.64-6.31,73-6,21.94.82,38,3.83,53,9,27.15,9.33,33.21,19.55,35,23,.88,1.69,7.52,15,2,28-5.3,12.51-18.55,17.16-30,21-29.21,9.78-54.93,4.17-55,5-.05.64,15.34,4,36,3,17.58-.85,31.55-1.53,45-11,4.94-3.48,17.77-12.53,20-28,2.65-18.39-11.73-32.73-16-37-11.41-11.39-24.21-14.68-42-19-7.82-1.9-28.21-6.32-58-5-19.89.88-34.19,3.93-62,10-25,5.45-43.56,10.56-56,14-96.81,26.77-89.71,25.41-97,27-30.19,6.58-74.6,15.82-128,6-52.44-9.64-66.63-29-71-36-2.31-3.68-11.91-19-8-36C69.24,201.21,96.87,183.34,133,183Z" transform="translate(-37.06 -21.5)"/></svg>